<svg width="30" height="30" viewBox="0 0 30 30" fill="none" xmlns="http://www.w3.org/2000/svg">
<g id="bx:bx-support">
<path id="Vector" d="M14.9121 2.62659C8.10683 2.62659 2.57031 8.16311 2.57031 14.9684V20.0816C2.57031 21.3454 3.67737 22.3734 5.03867 22.3734H6.27284C6.60017 22.3734 6.91409 22.2434 7.14554 22.0119C7.37699 21.7805 7.50702 21.4666 7.50702 21.1392V14.7919C7.50702 14.4645 7.37699 14.1506 7.14554 13.9192C6.91409 13.6877 6.60017 13.5577 6.27284 13.5577H5.15221C5.83841 8.78143 9.94823 5.09494 14.9121 5.09494C19.8759 5.09494 23.9858 8.78143 24.672 13.5577H23.5513C23.224 13.5577 22.9101 13.6877 22.6786 13.9192C22.4472 14.1506 22.3172 14.4645 22.3172 14.7919V22.3734C22.3172 23.7347 21.2101 24.8418 19.8488 24.8418H17.3804V23.6076H12.4437V27.3101H19.8488C22.5714 27.3101 24.7855 25.096 24.7855 22.3734C26.1468 22.3734 27.2539 21.3454 27.2539 20.0816V14.9684C27.2539 8.16311 21.7173 2.62659 14.9121 2.62659Z" fill="white"/>
</g>
</svg>
